<svg width="16" height="16" viewBox="0 0 16 16" fill="none" xmlns="http://www.w3.org/2000/svg">
<path d="M0 12.6562C0.625 13.0938 1.46875 13.4375 2.59375 13.6875C3.625 13.9062 4.75 14 6 14C7.21875 14 8.34375 13.9062 9.40625 13.6875C10.5 13.4375 11.375 13.0938 12 12.6562V14C12 14.375 11.7188 14.6875 11.1875 15C10.625 15.3125 9.90625 15.5625 9 15.75C8.0625 15.9375 7.0625 16 6 16C4.90625 16 3.90625 15.9375 3 15.75C2.0625 15.5625 1.34375 15.3125 0.8125 15C0.25 14.6875 0 14.375 0 14V12.6562ZM10 4C8.90625 4 7.90625 3.9375 7 3.75C6.0625 3.5625 5.34375 3.3125 4.8125 3C4.25 2.6875 4 2.375 4 2C4 1.65625 4.25 1.3125 4.8125 1C5.34375 0.6875 6.0625 0.46875 7 0.28125C7.90625 0.09375 8.90625 0 10 0C11.0625 0 12.0625 0.09375 13 0.28125C13.9062 0.46875 14.625 0.6875 15.1875 1C15.7188 1.3125 16 1.65625 16 2C16 2.375 15.7188 2.6875 15.1875 3C14.625 3.3125 13.9062 3.5625 13 3.75C12.0625 3.9375 11.0625 4 10 4ZM0 9.375C0.625 9.90625 1.46875 10.3125 2.59375 10.5938C3.65625 10.875 4.78125 11 6 11C7.1875 11 8.34375 10.875 9.40625 10.5938C10.5 10.3125 11.375 9.90625 12 9.375V11C12 11.375 11.7188 11.6875 11.1875 12C10.625 12.3125 9.90625 12.5625 9 12.75C8.0625 12.9375 7.0625 13 6 13C4.90625 13 3.90625 12.9375 3 12.75C2.0625 12.5625 1.34375 12.3125 0.8125 12C0.25 11.6875 0 11.375 0 11V9.375ZM13 9.71875V7.75C14.3125 7.53125 15.3125 7.15625 16 6.65625V8C16 8.375 15.7188 8.6875 15.1875 9C14.625 9.3125 13.9062 9.5625 13 9.71875ZM6 5C7.0625 5 8.0625 5.125 9 5.34375C9.90625 5.59375 10.625 5.875 11.1875 6.25C11.7188 6.625 12 7.0625 12 7.5C12 7.96875 11.7188 8.375 11.1875 8.75C10.625 9.125 9.90625 9.4375 9 9.65625C8.0625 9.90625 7.0625 10 6 10C4.90625 10 3.90625 9.90625 3 9.65625C2.0625 9.4375 1.34375 9.125 0.8125 8.75C0.25 8.375 0 7.96875 0 7.5C0 7.0625 0.25 6.625 0.8125 6.25C1.34375 5.875 2.0625 5.59375 3 5.34375C3.90625 5.125 4.90625 5 6 5ZM12.8438 6.75C12.5938 6.0625 11.9688 5.46875 10.9688 4.96875C12.0312 4.9375 12.9688 4.8125 13.8125 4.5625C14.7188 4.34375 15.4375 4.03125 16 3.65625V5C16 5.375 15.6875 5.71875 15.125 6.03125C14.5625 6.34375 13.7812 6.59375 12.8438 6.75Z" fill="white"/>
</svg>
